<svg height="448pt" viewBox="-7 0 448 448" width="448pt" xmlns="http://www.w3.org/2000/svg"><path d="m157.496094 208-157.496094 240h39.609375l125.621094-240zm0 0"/><path d="m434.351562 448-157.496093-240h-7.734375l125.621094 240zm0 0"/><path d="m225.175781 208v8h-16v-8h-25.878906l-125.601563 240h151.480469v-32h16v32h151.503907l-125.601563-240zm0 184h-16v-40h16zm0-64h-16v-32h16zm0-48h-16v-24h16zm0-40h-16v-16h16zm0 0"/><path d="m217.175781 155.3125c19.902344-25.074219 56-75.464844 56-99.3125 0-30.929688-25.070312-56-56-56-30.925781 0-56 25.070312-56 56 0 23.871094 36.089844 74.246094 56 99.3125zm0-139.3125c17.671875 0 32 14.328125 32 32s-14.328125 32-32 32-32-14.328125-32-32 14.328125-32 32-32zm0 0"/></svg>